<?xml version="1.0" encoding="UTF-8" standalone="no"?>
<!-- Created with Inkscape (http://www.inkscape.org/) -->

<svg
   xmlns:dc="http://purl.org/dc/elements/1.1/"
   xmlns:cc="http://creativecommons.org/ns#"
   xmlns:rdf="http://www.w3.org/1999/02/22-rdf-syntax-ns#"
   xmlns:svg="http://www.w3.org/2000/svg"
   xmlns="http://www.w3.org/2000/svg"
   xmlns:sodipodi="http://sodipodi.sourceforge.net/DTD/sodipodi-0.dtd"
   xmlns:inkscape="http://www.inkscape.org/namespaces/inkscape"
   id="svg3340"
   version="1.1"
   inkscape:version="0.91 r13725"
   width="84"
   height="33"
   viewBox="0 0 84 33"
   sodipodi:docname="logo.svg">
  <metadata
     id="metadata3346">
    <rdf:RDF>
      <cc:Work
         rdf:about="">
        <dc:format>image/svg+xml</dc:format>
        <dc:type
           rdf:resource="http://purl.org/dc/dcmitype/StillImage" />
        <dc:title></dc:title>
      </cc:Work>
    </rdf:RDF>
  </metadata>
  <defs
     id="defs3344" />
  <sodipodi:namedview
     pagecolor="#ffffff"
     bordercolor="#666666"
     borderopacity="1"
     objecttolerance="10"
     gridtolerance="10"
     guidetolerance="10"
     inkscape:pageopacity="0"
     inkscape:pageshadow="2"
     inkscape:window-width="1024"
     inkscape:window-height="578"
     id="namedview3342"
     showgrid="false"
     showguides="false"
     inkscape:zoom="9.3934933"
     inkscape:cx="45.908599"
     inkscape:cy="7.0287954"
     inkscape:window-x="-8"
     inkscape:window-y="-8"
     inkscape:window-maximized="1"
     inkscape:current-layer="g4313"
     inkscape:guide-bbox="true" />
  <g
     id="g4306"
     transform="translate(-132.43209,-173.92621)">
    <g
       id="g4313"
       transform="translate(0.42582667,-0.63874001)">
      <path
         style="fill:#ff0000;fill-rule:evenodd;stroke:none;stroke-width:1px;stroke-linecap:butt;stroke-linejoin:miter;stroke-opacity:1"
         d="m 135.05626,181.66948 c 0.6499,-1.25426 2.8605,-2.86049 2.8605,-2.86049 3.00672,-2.01185 5.72174,-2.46266 9.1837,-2.70995 l 6.0221,0.30111 5.72099,0 4.36602,-0.60221 c 3.89731,0.50412 0.56335,5.13927 -0.75276,6.92541 l -8.58149,-1.05387 -6.47376,23.93785 -7.07596,0 5.41989,-25.14227 c 0,0 -1.53341,-0.008 -3.61326,1.35497 -2.56239,1.6788 -2.82562,6.58151 -3.1616,9.48481 -3.7304,-2.43446 -5.92067,-5.43264 -3.91437,-9.63536 z"
         id="path3354"
         inkscape:connector-curvature="0"
         sodipodi:nodetypes="cccccccccccccc" />
      <path
         style="fill:#ff0000;fill-rule:evenodd;stroke:none;stroke-width:1px;stroke-linecap:butt;stroke-linejoin:miter;stroke-opacity:1"
         d="m 166.37118,186.63771 c -7.37797,-2.482 -13.13613,5.78491 -13.24862,10.23757 -0.3224,5.7927 3.27674,10.26978 6.92541,10.23757 3.64867,-0.0322 3.94321,-2.78774 4.21547,-2.70995 4.63633,2.92327 7.58794,3.34646 10.83977,-0.6022 5.00407,3.92161 6.84386,4.89713 10.38813,-0.30111 5.39649,4.89311 9.65554,4.94805 14.30248,0.30111 4.64633,5.61482 13.36376,1.25334 14.30249,-1.35497 0.93872,-2.60832 -0.15055,-17.7652 -0.15055,-17.7652 -1.26378,-0.27729 -3.96095,-0.86246 -6.0221,0.45166 -2.06115,1.31412 -4.21547,7.52762 -4.21547,7.52762 l -2.5594,5.11879 c 0,0 -2.28937,3.90915 -3.91436,4.66712 -1.62499,0.75797 -3.65351,0.97388 -4.66713,0 -1.01362,-0.97388 -1.99611,-3.36304 -0.15056,-3.76381 7.36258,-1.5049 8.45482,-3.66146 9.63537,-6.62431 1.84113,-4.85943 -3.45548,-8.425 -7.22652,-6.77486 -3.87864,1.29236 -6.11363,3.31407 -7.82873,6.62431 -0.88787,1.75302 -1.65607,7.22652 -1.65607,7.22652 l -2.70995,3.61326 -1.95718,-1.35497 c 0,0 7.14281,-23.24408 6.0221,-23.33564 0,0 -2.80475,-0.48375 -5.87156,0.45167 -3.06681,0.93542 -5.33606,21.94982 -7.97927,24.08839 -2.64321,2.13857 -2.40884,-1.50552 -2.40884,-1.50552 -0.5519,-4.74639 5.61466,-11.68283 3.31216,-14.6036 -1.48447,-1.30874 -5.15598,-1.7929 -7.37707,0.15055 z"
         id="path3356"
         inkscape:connector-curvature="0"
         sodipodi:nodetypes="cczcccczszcczzcccccccszzccc" />
      <path
         style="fill:#ffffff;fill-rule:evenodd;stroke:none;stroke-width:0.91851449px;stroke-linecap:butt;stroke-linejoin:miter;stroke-opacity:1"
         d="m 160.37878,195.95571 c 0,0 -1.03885,3.05085 -0.68132,5.34294 0.17392,1.115 3.05497,-0.99257 3.05497,-0.99257 l 1.7,-3.3551 c 0,0 2.84936,-6.95718 1.69232,-7.97114 -3.38935,0.67682 -5.22988,4.43432 -5.76597,6.97587 z"
         id="path3358"
         inkscape:connector-curvature="0"
         sodipodi:nodetypes="cscccc" />
      <path
         style="fill:#ffffff;fill-rule:evenodd;stroke:none;stroke-width:0.56902105px;stroke-linecap:butt;stroke-linejoin:miter;stroke-opacity:1"
         d="m 192.86346,191.87689 c 0,0 -0.77148,1.5766 -0.50598,2.7611 0.12924,0.5762 2.26878,-0.51293 2.26878,-0.51293 l 1.26248,-1.73383 c 0,0 2.1161,-3.5953 1.25682,-4.11929 -2.5171,0.34976 -3.88397,2.29155 -4.2821,3.60495 z"
         id="path3358-0"
         inkscape:connector-curvature="0"
         sodipodi:nodetypes="cscccc" />
      <path
         style="fill:#ffffff;fill-rule:evenodd;stroke:none;stroke-width:0.91851449px;stroke-linecap:butt;stroke-linejoin:miter;stroke-opacity:1"
         d="m 201.439,202.43734 c -0.98362,0.55314 6.07568,-0.45974 6.96934,-1.74533 0.89366,-1.2856 1.41912,-7.32967 -0.22094,-9.36906 -1.3851,5.90903 -2.60977,8.71435 -6.7484,11.11439 z"
         id="path3358-9"
         inkscape:connector-curvature="0"
         sodipodi:nodetypes="czcc" />
      <ellipse
         style="fill:#000000;stroke:none;stroke-opacity:1"
         id="path4331-1"
         cx="186.29916"
         cy="196.70636"
         rx="2.7678733"
         ry="3.0872433" />
      <ellipse
         style="fill:#000000;stroke:none;stroke-opacity:1"
         id="path4331-9"
         cx="145.63272"
         cy="198.40968"
         rx="2.7678733"
         ry="3.0872433" />
      <ellipse
         style="fill:#000000;stroke:none;stroke-opacity:1"
         id="path4331-4"
         cx="149.46515"
         cy="182.44118"
         rx="2.7678733"
         ry="3.0872433" />
      <ellipse
         style="fill:#000000;stroke:none;stroke-opacity:1"
         id="path4331-3"
         cx="169.69193"
         cy="189.25439"
         rx="2.7678733"
         ry="3.0872433" />
      <ellipse
         style="fill:#000000;stroke:none;stroke-opacity:1"
         id="path4331-2"
         cx="175.22768"
         cy="197.98386"
         rx="2.4485033"
         ry="3.0872433" />
      <ellipse
         style="fill:#000000;stroke:none;stroke-opacity:1"
         id="path4331-31"
         cx="202.48058"
         cy="187.76401"
         rx="2.7678733"
         ry="3.0872433" />
      <ellipse
         style="fill:#000000;stroke:none;stroke-opacity:1"
         id="path4331-7"
         cx="190.34451"
         cy="207.35204"
         rx="2.7678733"
         ry="3.0872433" />
      <ellipse
         style="fill:#000000;stroke:none;stroke-opacity:1"
         id="path4331-10"
         cx="212.70041"
         cy="188.61566"
         rx="2.7678733"
         ry="3.0872433" />
      <ellipse
         style="fill:#000000;stroke:none;stroke-opacity:1"
         id="path4331-78"
         cx="214.19081"
         cy="200.5388"
         rx="2.7678733"
         ry="3.0872433" />
      <path
         inkscape:connector-curvature="0"
         style="fill:#000000;fill-rule:evenodd;stroke:none;stroke-width:1px;stroke-linecap:butt;stroke-linejoin:miter;stroke-opacity:1"
         d="m 138.21091,178.71235 c -0.64805,0.50657 -2.01978,1.65007 -2.50977,2.5957 -0.40578,0.85001 -0.63432,1.64753 -0.71875,2.4043 a 2.7678733,3.0872433 0 0 0 1.5,0.49609 2.7678733,3.0872433 0 0 0 2.76758,-3.08789 2.7678733,3.0872433 0 0 0 -1.03906,-2.4082 z"
         id="path3354-0" />
      <path
         inkscape:connector-curvature="0"
         style="fill:#000000;fill-rule:evenodd;stroke:none;stroke-width:1px;stroke-linecap:butt;stroke-linejoin:miter;stroke-opacity:1"
         d="m 159.30456,177.31254 c -0.77585,-0.2732 -2.47816,-0.813 -3.53882,-0.7165 -0.93474,0.11594 -1.72978,0.35294 -2.41287,0.68942 a 2.7678733,3.0872433 57.410244 0 0 0.38995,1.53102 2.7678733,3.0872433 57.410244 0 0 4.09238,0.66862 2.7678733,3.0872433 57.410244 0 0 1.46936,-2.17256 z"
         id="path3354-0-0"
         inkscape:transform-center-y="1.91622" />
      <path
         inkscape:connector-curvature="0"
         style="fill:#000000;fill-rule:evenodd;stroke:none;stroke-width:1px;stroke-linecap:butt;stroke-linejoin:miter;stroke-opacity:1"
         d="m 160.96687,187.43047 c -0.77657,0.27115 -2.44325,0.91255 -3.21142,1.65027 -0.65767,0.67427 -1.13063,1.35586 -1.45404,2.04524 a 2.7678733,3.0872433 18.766821 0 0 1.26065,0.95229 2.7678733,3.0872433 18.766821 0 0 3.61387,-2.03334 2.7678733,3.0872433 18.766821 0 0 -0.20906,-2.61446 z"
         id="path3354-0-8" />
      <path
         inkscape:connector-curvature="0"
         style="fill:#000000;fill-rule:evenodd;stroke:none;stroke-width:1px;stroke-linecap:butt;stroke-linejoin:miter;stroke-opacity:1"
         d="m 154.382,194.81916 c -0.36731,0.73598 -1.11417,2.35815 -1.15,3.42259 -9.2e-4,0.9419 0.13562,1.7602 0.38475,2.47976 a 3.0872433,2.7678733 64.536857 0 0 1.56757,-0.19699 3.0872433,2.7678733 64.536857 0 0 1.17117,-3.97781 3.0872433,2.7678733 64.536857 0 0 -1.97349,-1.72755 z"
         id="path3354-0-02"
         inkscape:transform-center-x="-3.6195267"
         inkscape:transform-center-y="0.42582667" />
      <path
         inkscape:connector-curvature="0"
         style="fill:#000000;fill-rule:evenodd;stroke:none;stroke-width:1px;stroke-linecap:butt;stroke-linejoin:miter;stroke-opacity:1"
         d="m 160.857,203.69157 a 2.7678733,3.0872433 0 0 0 -2.73243,2.62109 c 0.65753,0.29224 1.34243,0.44747 2.0293,0.44141 1.68637,-0.0149 2.63838,-0.61437 3.2207,-1.24414 a 2.7678733,3.0872433 0 0 0 -2.51757,-1.81836 z"
         id="path3356-0" />
      <path
         inkscape:connector-curvature="0"
         style="fill:#000000;fill-rule:evenodd;stroke:none;stroke-width:1px;stroke-linecap:butt;stroke-linejoin:miter;stroke-opacity:1"
         d="m 182.50387,182.45336 c -0.62552,1.24941 0.73975,3.18717 2.2054,3.98625 0.60495,-0.48259 0.33531,-1.47158 0.64466,-2.10192 0.75948,-1.54761 0.57582,-2.66092 0.19088,-3.44854 -1.34979,-0.0397 -2.53912,0.5721 -3.04094,1.56421 z"
         id="path3356-0-5"
         sodipodi:nodetypes="ccccc" />
    </g>
  </g>
</svg>
